<svg width="411" height="172" viewBox="0 0 411 172" fill="none" xmlns="http://www.w3.org/2000/svg">
<path fill-rule="evenodd" clip-rule="evenodd" d="M205.253 8.74419C213.288 8.7441 220.146 8.74406 225.126 9.41373C230.252 10.1029 234.401 11.5549 237.673 14.8268C240.945 18.0988 242.397 22.2477 243.086 27.3736C243.756 32.3543 243.756 38.7184 243.756 46.753C243.756 54.788 243.756 61.6456 243.086 66.6263C242.397 71.7522 240.945 75.9013 237.673 79.1734C234.401 82.445 230.252 83.897 225.126 84.5865C220.146 85.2558 213.288 85.2558 205.253 85.2558C197.219 85.2558 190.854 85.2558 185.874 84.5865C180.748 83.897 176.599 82.445 173.327 79.1734C170.055 75.9013 168.603 71.7522 167.914 66.6263C167.244 61.6456 167.244 54.788 167.244 46.7534C167.244 38.7184 167.244 32.3543 167.914 27.3736C168.603 22.2477 170.055 18.0988 173.327 14.8268C176.599 11.5549 180.748 10.1029 185.874 9.41373C190.854 8.74406 197.218 8.7441 205.253 8.74419ZM196.757 37.6949L193.291 48.093H200.223L196.757 37.6949ZM202.409 54.6512L204.576 61.1533C205.149 62.8711 207.006 63.7998 208.724 63.227C210.442 62.6543 211.37 60.7975 210.798 59.0792L202.745 34.9207C201.886 32.3432 199.474 30.6047 196.757 30.6047C194.04 30.6047 191.628 32.3432 190.769 34.9207L182.716 59.0792C182.143 60.7975 183.072 62.6543 184.79 63.227C186.508 63.7998 188.365 62.8711 188.937 61.1533L191.105 54.6512H202.409ZM224.081 33.8837C224.081 32.0728 222.613 30.6047 220.802 30.6047C218.991 30.6047 217.523 32.0728 217.523 33.8837V60.1163C217.523 61.9272 218.991 63.3954 220.802 63.3954C222.613 63.3954 224.081 61.9272 224.081 60.1163V33.8837Z" fill="#EBEBEB"/>
<path fill-rule="evenodd" clip-rule="evenodd" d="M158.5 29.5116C158.5 27.7007 159.968 26.2326 161.779 26.2326H170.523C172.334 26.2326 173.802 27.7007 173.802 29.5116C173.802 31.3226 172.334 32.7907 170.523 32.7907H161.779C159.968 32.7907 158.5 31.3226 158.5 29.5116ZM237.198 29.5116C237.198 27.7007 238.666 26.2326 240.477 26.2326H249.221C251.032 26.2326 252.5 27.7007 252.5 29.5116C252.5 31.3226 251.032 32.7907 249.221 32.7907H240.477C238.666 32.7907 237.198 31.3226 237.198 29.5116ZM158.5 47C158.5 45.1891 159.968 43.7209 161.779 43.7209H170.523C172.334 43.7209 173.802 45.1891 173.802 47C173.802 48.8109 172.334 50.2791 170.523 50.2791H161.779C159.968 50.2791 158.5 48.8109 158.5 47ZM237.198 47C237.198 45.1891 238.666 43.7209 240.477 43.7209H249.221C251.032 43.7209 252.5 45.1891 252.5 47C252.5 48.8109 251.032 50.2791 249.221 50.2791H240.477C238.666 50.2791 237.198 48.8109 237.198 47ZM158.5 64.4884C158.5 62.6775 159.968 61.2093 161.779 61.2093H170.523C172.334 61.2093 173.802 62.6775 173.802 64.4884C173.802 66.2993 172.334 67.7674 170.523 67.7674H161.779C159.968 67.7674 158.5 66.2993 158.5 64.4884ZM237.198 64.4884C237.198 62.6775 238.666 61.2093 240.477 61.2093H249.221C251.032 61.2093 252.5 62.6775 252.5 64.4884C252.5 66.2993 251.032 67.7674 249.221 67.7674H240.477C238.666 67.7674 237.198 66.2993 237.198 64.4884Z" fill="#EBEBEB"/>
<path fill-rule="evenodd" clip-rule="evenodd" d="M188.012 0C189.823 0 191.291 1.46811 191.291 3.27907V12.0233C191.291 13.8342 189.823 15.3023 188.012 15.3023C186.201 15.3023 184.733 13.8342 184.733 12.0233V3.27907C184.733 1.46811 186.201 0 188.012 0ZM205.5 0C207.311 0 208.779 1.46811 208.779 3.27907V12.0233C208.779 13.8342 207.311 15.3023 205.5 15.3023C203.689 15.3023 202.221 13.8342 202.221 12.0233V3.27907C202.221 1.46811 203.689 0 205.5 0ZM222.988 0C224.799 0 226.267 1.46811 226.267 3.27907V12.0233C226.267 13.8342 224.799 15.3023 222.988 15.3023C221.177 15.3023 219.709 13.8342 219.709 12.0233V3.27907C219.709 1.46811 221.177 0 222.988 0ZM188.012 78.6977C189.823 78.6977 191.291 80.1658 191.291 81.9767V90.7209C191.291 92.5319 189.823 94 188.012 94C186.201 94 184.733 92.5319 184.733 90.7209V81.9767C184.733 80.1658 186.201 78.6977 188.012 78.6977ZM205.5 78.6977C207.311 78.6977 208.779 80.1658 208.779 81.9767V90.7209C208.779 92.5319 207.311 94 205.5 94C203.689 94 202.221 92.5319 202.221 90.7209V81.9767C202.221 80.1658 203.689 78.6977 205.5 78.6977ZM222.988 78.6977C224.799 78.6977 226.267 80.1658 226.267 81.9767V90.7209C226.267 92.5319 224.799 94 222.988 94C221.177 94 219.709 92.5319 219.709 90.7209V81.9767C219.709 80.1658 221.177 78.6977 222.988 78.6977Z" fill="#EBEBEB"/>
<path d="M19.4358 140H13.4438V102.48H19.4358V140ZM32.2038 107.912H0.675844V102.48H32.2038V107.912ZM44.5588 140.56C41.5348 140.56 39.0148 139.963 36.9988 138.768C34.9828 137.536 33.4895 135.837 32.5188 133.672C31.5482 131.469 31.0628 128.931 31.0628 126.056C31.0628 123.181 31.6042 120.661 32.6868 118.496C33.8068 116.331 35.3748 114.651 37.3908 113.456C39.4068 112.224 41.7962 111.608 44.5588 111.608C47.0602 111.608 49.2628 112.093 51.1668 113.064C53.1082 113.997 54.6015 115.36 55.6468 117.152C56.7295 118.944 57.2708 121.109 57.2708 123.648C57.2708 124.395 57.2335 125.123 57.1588 125.832C57.1215 126.504 57.0655 127.064 56.9908 127.512H33.9188V123.48H52.0628L51.4468 124.04C51.5962 122.323 51.4095 120.923 50.8868 119.84C50.4015 118.757 49.5988 117.955 48.4788 117.432C47.3962 116.909 46.0335 116.648 44.3908 116.648C41.4415 116.648 39.4255 117.395 38.3428 118.888C37.2602 120.344 36.7188 122.36 36.7188 124.936V126.616C36.7188 128.483 36.9428 130.069 37.3908 131.376C37.8762 132.645 38.6975 133.597 39.8548 134.232C41.0122 134.867 42.5988 135.184 44.6148 135.184C46.9668 135.184 48.6282 134.811 49.5988 134.064C50.5695 133.317 51.0548 132.328 51.0548 131.096V130.648H57.0468V131.152C57.0468 133.056 56.5242 134.717 55.4788 136.136C54.4335 137.517 52.9775 138.6 51.1108 139.384C49.2815 140.168 47.0975 140.56 44.5588 140.56ZM74.0743 140.56C70.005 140.56 66.925 139.757 64.8343 138.152C62.7437 136.509 61.6983 133.989 61.6983 130.592V130.48H67.5223V131.488C67.5223 132.459 67.709 133.261 68.0823 133.896C68.493 134.493 69.165 134.941 70.0983 135.24C71.069 135.501 72.4317 135.632 74.1863 135.632C75.6797 135.632 76.7997 135.52 77.5463 135.296C78.3303 135.035 78.853 134.68 79.1143 134.232C79.3757 133.784 79.5063 133.224 79.5063 132.552C79.5063 131.432 79.1143 130.648 78.3303 130.2C77.5463 129.715 76.1463 129.285 74.1303 128.912L69.7623 128.184C68.1197 127.848 66.6823 127.381 65.4503 126.784C64.2557 126.149 63.3223 125.291 62.6503 124.208C62.0157 123.088 61.6983 121.688 61.6983 120.008C61.6983 117.507 62.6877 115.491 64.6663 113.96C66.645 112.392 69.445 111.608 73.0663 111.608C75.269 111.608 77.229 111.963 78.9463 112.672C80.6637 113.381 82.0263 114.445 83.0343 115.864C84.0423 117.283 84.5463 119.056 84.5463 121.184V121.688H78.7783V121.016C78.7783 120.12 78.629 119.355 78.3303 118.72C78.0317 118.048 77.4717 117.525 76.6503 117.152C75.829 116.779 74.5783 116.592 72.8983 116.592C70.6957 116.592 69.2397 116.872 68.5303 117.432C67.821 117.992 67.4663 118.813 67.4663 119.896C67.4663 120.979 67.7837 121.744 68.4183 122.192C69.0903 122.603 70.397 123.013 72.3383 123.424L77.0983 124.32C78.8903 124.656 80.3837 125.16 81.5783 125.832C82.773 126.504 83.669 127.381 84.2663 128.464C84.901 129.547 85.2183 130.835 85.2183 132.328C85.2183 134.941 84.229 136.976 82.2503 138.432C80.309 139.851 77.5837 140.56 74.0743 140.56ZM101.417 140C98.3554 140 96.0034 139.347 94.3608 138.04C92.7554 136.733 91.9528 134.531 91.9528 131.432V112.784L93.3528 105.28H98.0008V131.152C98.0008 132.608 98.3554 133.541 99.0648 133.952C99.8114 134.325 101.137 134.512 103.041 134.512H106.401V139.496C105.841 139.645 105.113 139.776 104.217 139.888C103.321 139.963 102.387 140 101.417 140ZM106.401 117.208H87.3048V112.168H106.401V117.208ZM121.887 140.56C118.863 140.56 116.343 139.963 114.327 138.768C112.311 137.536 110.818 135.837 109.847 133.672C108.876 131.469 108.391 128.931 108.391 126.056C108.391 123.181 108.932 120.661 110.015 118.496C111.135 116.331 112.703 114.651 114.719 113.456C116.735 112.224 119.124 111.608 121.887 111.608C124.388 111.608 126.591 112.093 128.495 113.064C130.436 113.997 131.93 115.36 132.975 117.152C134.058 118.944 134.599 121.109 134.599 123.648C134.599 124.395 134.562 125.123 134.487 125.832C134.45 126.504 134.394 127.064 134.319 127.512H111.247V123.48H129.391L128.775 124.04C128.924 122.323 128.738 120.923 128.215 119.84C127.73 118.757 126.927 117.955 125.807 117.432C124.724 116.909 123.362 116.648 121.719 116.648C118.77 116.648 116.754 117.395 115.671 118.888C114.588 120.344 114.047 122.36 114.047 124.936V126.616C114.047 128.483 114.271 130.069 114.719 131.376C115.204 132.645 116.026 133.597 117.183 134.232C118.34 134.867 119.927 135.184 121.943 135.184C124.295 135.184 125.956 134.811 126.927 134.064C127.898 133.317 128.383 132.328 128.383 131.096V130.648H134.375V131.152C134.375 133.056 133.852 134.717 132.807 136.136C131.762 137.517 130.306 138.6 128.439 139.384C126.61 140.168 124.426 140.56 121.887 140.56ZM166.437 126.112H148.573V120.96H166.437V126.112ZM187.477 140H181.429V102.48H187.477V140ZM207.189 124.936H183.277V119.504H207.189V124.936ZM208.029 107.912H183.277V102.48H208.029V107.912ZM218.426 140H212.378V112H217.922V119.784L218.426 120.064V140ZM218.426 121.856H217.026V116.424H218.202C218.762 115.117 219.677 113.997 220.946 113.064C222.253 112.093 223.933 111.608 225.986 111.608C227.965 111.608 229.533 112.037 230.69 112.896C231.885 113.755 232.743 114.893 233.266 116.312C233.789 117.731 234.05 119.317 234.05 121.072V122.92H228.002V121.8C228.002 119.933 227.685 118.627 227.05 117.88C226.415 117.133 225.221 116.76 223.466 116.76C221.637 116.76 220.33 117.152 219.546 117.936C218.799 118.683 218.426 119.989 218.426 121.856ZM250.685 140.56C247.848 140.56 245.384 139.963 243.293 138.768C241.203 137.536 239.597 135.837 238.477 133.672C237.357 131.469 236.797 128.931 236.797 126.056C236.797 123.181 237.357 120.661 238.477 118.496C239.597 116.331 241.203 114.651 243.293 113.456C245.384 112.224 247.848 111.608 250.685 111.608C253.523 111.608 255.949 112.224 257.965 113.456C260.019 114.651 261.587 116.331 262.669 118.496C263.789 120.661 264.349 123.181 264.349 126.056C264.349 128.931 263.789 131.469 262.669 133.672C261.587 135.837 260.019 137.536 257.965 138.768C255.949 139.963 253.523 140.56 250.685 140.56ZM250.685 135.184C253.597 135.184 255.632 134.456 256.789 133C257.947 131.507 258.525 129.192 258.525 126.056C258.525 122.92 257.947 120.624 256.789 119.168C255.632 117.712 253.597 116.984 250.685 116.984C247.736 116.984 245.683 117.712 244.525 119.168C243.368 120.624 242.789 122.92 242.789 126.056C242.789 129.192 243.368 131.507 244.525 133C245.683 134.456 247.736 135.184 250.685 135.184ZM294.798 140H288.75V123.816C288.75 121.352 288.284 119.579 287.35 118.496C286.417 117.376 284.662 116.816 282.086 116.816C280.444 116.816 279.1 117.059 278.054 117.544C277.009 117.992 276.225 118.739 275.702 119.784C275.18 120.792 274.918 122.173 274.918 123.928H273.854L273.35 117.376H274.694C275.105 116.368 275.721 115.435 276.542 114.576C277.364 113.717 278.409 113.008 279.678 112.448C280.985 111.888 282.534 111.608 284.326 111.608C286.753 111.608 288.732 112.075 290.262 113.008C291.793 113.941 292.932 115.229 293.678 116.872C294.425 118.515 294.798 120.4 294.798 122.528V140ZM274.918 140H268.87V112.168H274.414V120.512L274.918 120.792V140ZM311.909 140C308.848 140 306.496 139.347 304.853 138.04C303.248 136.733 302.445 134.531 302.445 131.432V112.784L303.845 105.28H308.493V131.152C308.493 132.608 308.848 133.541 309.557 133.952C310.304 134.325 311.629 134.512 313.533 134.512H316.893V139.496C316.333 139.645 315.605 139.776 314.709 139.888C313.813 139.963 312.88 140 311.909 140ZM316.893 117.208H297.797V112.168H316.893V117.208ZM332.379 140.56C329.355 140.56 326.835 139.963 324.819 138.768C322.803 137.536 321.31 135.837 320.339 133.672C319.368 131.469 318.883 128.931 318.883 126.056C318.883 123.181 319.424 120.661 320.507 118.496C321.627 116.331 323.195 114.651 325.211 113.456C327.227 112.224 329.616 111.608 332.379 111.608C334.88 111.608 337.083 112.093 338.987 113.064C340.928 113.997 342.422 115.36 343.467 117.152C344.55 118.944 345.091 121.109 345.091 123.648C345.091 124.395 345.054 125.123 344.979 125.832C344.942 126.504 344.886 127.064 344.811 127.512H321.739V123.48H339.883L339.267 124.04C339.416 122.323 339.23 120.923 338.707 119.84C338.222 118.757 337.419 117.955 336.299 117.432C335.216 116.909 333.854 116.648 332.211 116.648C329.262 116.648 327.246 117.395 326.163 118.888C325.08 120.344 324.539 122.36 324.539 124.936V126.616C324.539 128.483 324.763 130.069 325.211 131.376C325.696 132.645 326.518 133.597 327.675 134.232C328.832 134.867 330.419 135.184 332.435 135.184C334.787 135.184 336.448 134.811 337.419 134.064C338.39 133.317 338.875 132.328 338.875 131.096V130.648H344.867V131.152C344.867 133.056 344.344 134.717 343.299 136.136C342.254 137.517 340.798 138.6 338.931 139.384C337.102 140.168 334.918 140.56 332.379 140.56ZM375.845 140H369.797V123.816C369.797 121.352 369.331 119.579 368.397 118.496C367.464 117.376 365.709 116.816 363.133 116.816C361.491 116.816 360.147 117.059 359.101 117.544C358.056 117.992 357.272 118.739 356.749 119.784C356.227 120.792 355.965 122.173 355.965 123.928H354.901L354.397 117.376H355.741C356.152 116.368 356.768 115.435 357.589 114.576C358.411 113.717 359.456 113.008 360.725 112.448C362.032 111.888 363.581 111.608 365.373 111.608C367.8 111.608 369.779 112.075 371.309 113.008C372.84 113.941 373.979 115.229 374.725 116.872C375.472 118.515 375.845 120.4 375.845 122.528V140ZM355.965 140H349.917V112.168H355.461V120.512L355.965 120.792V140ZM392.671 140.56C388.713 140.56 385.671 139.253 383.543 136.64C381.452 133.989 380.407 130.461 380.407 126.056C380.407 121.651 381.433 118.141 383.487 115.528C385.577 112.915 388.527 111.608 392.335 111.608C394.799 111.608 396.777 112.112 398.271 113.12C399.801 114.091 400.865 115.211 401.463 116.48H402.975L402.695 123.592H401.631C401.631 122.024 401.332 120.736 400.735 119.728C400.137 118.72 399.279 117.973 398.159 117.488C397.039 117.003 395.657 116.76 394.015 116.76C392.671 116.76 391.513 116.928 390.543 117.264C389.609 117.6 388.825 118.123 388.191 118.832C387.593 119.541 387.145 120.493 386.847 121.688C386.585 122.883 386.455 124.339 386.455 126.056C386.455 127.736 386.585 129.192 386.847 130.424C387.145 131.619 387.593 132.589 388.191 133.336C388.825 134.045 389.628 134.568 390.599 134.904C391.569 135.24 392.708 135.408 394.015 135.408C395.657 135.408 397.039 135.165 398.159 134.68C399.279 134.157 400.137 133.392 400.735 132.384C401.332 131.376 401.631 130.107 401.631 128.576H402.695L402.975 135.408H401.855C401.22 137.013 400.119 138.283 398.551 139.216C397.02 140.112 395.06 140.56 392.671 140.56ZM407.679 140H402.079V133.392L401.631 132.664V102.48H407.679V140Z" fill="#EBEBEB"/>
<path d="M82.0432 168V154.909H83.6285V166.594H89.7137V168H82.0432ZM95.9523 168.205C95.066 168.205 94.2883 167.994 93.6192 167.572C92.9545 167.15 92.4346 166.56 92.0596 165.801C91.6888 165.043 91.5035 164.156 91.5035 163.142C91.5035 162.119 91.6888 161.227 92.0596 160.464C92.4346 159.701 92.9545 159.109 93.6192 158.687C94.2883 158.265 95.066 158.054 95.9523 158.054C96.8387 158.054 97.6143 158.265 98.279 158.687C98.9481 159.109 99.468 159.701 99.8387 160.464C100.214 161.227 100.401 162.119 100.401 163.142C100.401 164.156 100.214 165.043 99.8387 165.801C99.468 166.56 98.9481 167.15 98.279 167.572C97.6143 167.994 96.8387 168.205 95.9523 168.205ZM95.9523 166.849C96.6256 166.849 97.1796 166.677 97.6143 166.332C98.0489 165.987 98.3707 165.533 98.5795 164.97C98.7883 164.408 98.8927 163.798 98.8927 163.142C98.8927 162.486 98.7883 161.874 98.5795 161.308C98.3707 160.741 98.0489 160.283 97.6143 159.933C97.1796 159.584 96.6256 159.409 95.9523 159.409C95.279 159.409 94.7251 159.584 94.2904 159.933C93.8557 160.283 93.534 160.741 93.3252 161.308C93.1164 161.874 93.012 162.486 93.012 163.142C93.012 163.798 93.1164 164.408 93.3252 164.97C93.534 165.533 93.8557 165.987 94.2904 166.332C94.7251 166.677 95.279 166.849 95.9523 166.849ZM102.704 168V158.182H104.161V159.665H104.264C104.443 159.179 104.766 158.785 105.235 158.482C105.704 158.18 106.232 158.028 106.82 158.028C106.931 158.028 107.07 158.031 107.236 158.035C107.402 158.039 107.528 158.045 107.613 158.054V159.588C107.562 159.575 107.445 159.556 107.261 159.531C107.082 159.501 106.893 159.486 106.693 159.486C106.215 159.486 105.789 159.586 105.414 159.786C105.043 159.982 104.749 160.255 104.532 160.604C104.319 160.95 104.212 161.344 104.212 161.787V168H102.704ZM113.219 168.205C112.273 168.205 111.457 167.996 110.771 167.578C110.089 167.156 109.563 166.568 109.192 165.814C108.825 165.055 108.642 164.173 108.642 163.168C108.642 162.162 108.825 161.276 109.192 160.509C109.563 159.737 110.078 159.136 110.739 158.706C111.403 158.271 112.179 158.054 113.065 158.054C113.577 158.054 114.082 158.139 114.58 158.31C115.079 158.48 115.533 158.757 115.942 159.141C116.351 159.52 116.677 160.023 116.92 160.649C117.163 161.276 117.284 162.047 117.284 162.963V163.602H109.716V162.298H115.75C115.75 161.744 115.639 161.25 115.418 160.815C115.2 160.381 114.889 160.038 114.484 159.786C114.084 159.535 113.611 159.409 113.065 159.409C112.465 159.409 111.945 159.558 111.506 159.857C111.071 160.151 110.737 160.534 110.502 161.007C110.268 161.48 110.151 161.987 110.151 162.528V163.398C110.151 164.139 110.278 164.768 110.534 165.283C110.794 165.795 111.154 166.185 111.614 166.453C112.075 166.717 112.609 166.849 113.219 166.849C113.615 166.849 113.973 166.794 114.293 166.683C114.617 166.568 114.896 166.398 115.13 166.172C115.364 165.942 115.546 165.656 115.673 165.315L117.131 165.724C116.977 166.219 116.72 166.653 116.357 167.028C115.995 167.399 115.548 167.689 115.015 167.898C114.482 168.102 113.884 168.205 113.219 168.205ZM119.579 168V158.182H121.036V159.716H121.164C121.369 159.192 121.699 158.785 122.155 158.495C122.611 158.201 123.158 158.054 123.798 158.054C124.445 158.054 124.984 158.201 125.415 158.495C125.85 158.785 126.188 159.192 126.431 159.716H126.533C126.785 159.209 127.162 158.806 127.665 158.508C128.168 158.205 128.771 158.054 129.474 158.054C130.352 158.054 131.07 158.329 131.628 158.879C132.186 159.424 132.465 160.274 132.465 161.429V168H130.957V161.429C130.957 160.705 130.759 160.187 130.362 159.876C129.966 159.565 129.499 159.409 128.962 159.409C128.272 159.409 127.737 159.618 127.358 160.036C126.979 160.449 126.789 160.973 126.789 161.608V168H125.255V161.276C125.255 160.717 125.074 160.268 124.712 159.927C124.35 159.582 123.883 159.409 123.312 159.409C122.92 159.409 122.553 159.513 122.212 159.722C121.876 159.931 121.603 160.221 121.394 160.592C121.19 160.958 121.087 161.382 121.087 161.864V168H119.579ZM142.076 154.909V168H140.491V154.909H142.076ZM145.05 171.682V158.182H146.507V159.741H146.686C146.797 159.571 146.95 159.354 147.146 159.089C147.347 158.821 147.632 158.582 148.003 158.374C148.378 158.161 148.885 158.054 149.524 158.054C150.351 158.054 151.079 158.261 151.71 158.674C152.341 159.087 152.833 159.673 153.187 160.432C153.54 161.19 153.717 162.085 153.717 163.116C153.717 164.156 153.54 165.058 153.187 165.82C152.833 166.579 152.343 167.167 151.717 167.585C151.09 167.998 150.368 168.205 149.55 168.205C148.919 168.205 148.414 168.1 148.035 167.891C147.655 167.678 147.364 167.437 147.159 167.169C146.954 166.896 146.797 166.67 146.686 166.491H146.558V171.682H145.05ZM146.533 163.091C146.533 163.832 146.641 164.487 146.859 165.053C147.076 165.616 147.393 166.057 147.811 166.376C148.229 166.692 148.74 166.849 149.345 166.849C149.976 166.849 150.502 166.683 150.924 166.351C151.35 166.014 151.67 165.562 151.883 164.996C152.1 164.425 152.209 163.79 152.209 163.091C152.209 162.401 152.102 161.778 151.889 161.224C151.68 160.666 151.363 160.225 150.937 159.901C150.515 159.573 149.984 159.409 149.345 159.409C148.731 159.409 148.216 159.565 147.798 159.876C147.381 160.183 147.065 160.613 146.852 161.167C146.639 161.717 146.533 162.358 146.533 163.091ZM162.973 160.381L161.618 160.764C161.533 160.538 161.407 160.319 161.241 160.106C161.079 159.888 160.857 159.71 160.576 159.569C160.295 159.428 159.935 159.358 159.496 159.358C158.895 159.358 158.394 159.496 157.994 159.773C157.597 160.046 157.399 160.393 157.399 160.815C157.399 161.19 157.535 161.487 157.808 161.704C158.081 161.921 158.507 162.102 159.087 162.247L160.544 162.605C161.422 162.818 162.076 163.144 162.506 163.583C162.937 164.018 163.152 164.578 163.152 165.264C163.152 165.827 162.99 166.33 162.666 166.773C162.347 167.216 161.899 167.565 161.324 167.821C160.748 168.077 160.079 168.205 159.317 168.205C158.315 168.205 157.486 167.987 156.83 167.553C156.174 167.118 155.758 166.483 155.584 165.648L157.016 165.29C157.152 165.818 157.41 166.214 157.789 166.479C158.172 166.743 158.673 166.875 159.291 166.875C159.994 166.875 160.552 166.726 160.966 166.428C161.383 166.125 161.592 165.763 161.592 165.341C161.592 165 161.473 164.714 161.234 164.484C160.996 164.25 160.629 164.075 160.135 163.96L158.498 163.577C157.599 163.364 156.939 163.033 156.517 162.586C156.099 162.134 155.891 161.57 155.891 160.892C155.891 160.338 156.046 159.848 156.357 159.422C156.672 158.996 157.101 158.661 157.642 158.418C158.187 158.175 158.805 158.054 159.496 158.054C160.467 158.054 161.23 158.267 161.784 158.693C162.342 159.119 162.739 159.682 162.973 160.381ZM171.61 163.986V158.182H173.119V168H171.61V166.338H171.508C171.278 166.837 170.92 167.261 170.434 167.61C169.948 167.955 169.335 168.128 168.593 168.128C167.979 168.128 167.434 167.994 166.957 167.725C166.479 167.452 166.104 167.043 165.832 166.498C165.559 165.948 165.423 165.256 165.423 164.42V158.182H166.931V164.318C166.931 165.034 167.131 165.605 167.532 166.031C167.937 166.457 168.453 166.67 169.079 166.67C169.454 166.67 169.835 166.575 170.223 166.383C170.615 166.191 170.943 165.897 171.207 165.501C171.476 165.104 171.61 164.599 171.61 163.986ZM175.882 168V158.182H177.339V159.716H177.467C177.671 159.192 178.002 158.785 178.458 158.495C178.914 158.201 179.461 158.054 180.1 158.054C180.748 158.054 181.287 158.201 181.718 158.495C182.152 158.785 182.491 159.192 182.734 159.716H182.836C183.088 159.209 183.465 158.806 183.968 158.508C184.47 158.205 185.073 158.054 185.777 158.054C186.654 158.054 187.372 158.329 187.931 158.879C188.489 159.424 188.768 160.274 188.768 161.429V168H187.259V161.429C187.259 160.705 187.061 160.187 186.665 159.876C186.269 159.565 185.802 159.409 185.265 159.409C184.575 159.409 184.04 159.618 183.661 160.036C183.282 160.449 183.092 160.973 183.092 161.608V168H181.558V161.276C181.558 160.717 181.377 160.268 181.014 159.927C180.652 159.582 180.186 159.409 179.615 159.409C179.223 159.409 178.856 159.513 178.515 159.722C178.179 159.931 177.906 160.221 177.697 160.592C177.492 160.958 177.39 161.382 177.39 161.864V168H175.882ZM196.589 168V158.182H198.097V168H196.589ZM197.356 156.545C197.062 156.545 196.808 156.445 196.595 156.245C196.386 156.045 196.282 155.804 196.282 155.523C196.282 155.241 196.386 155.001 196.595 154.8C196.808 154.6 197.062 154.5 197.356 154.5C197.65 154.5 197.901 154.6 198.11 154.8C198.323 155.001 198.43 155.241 198.43 155.523C198.43 155.804 198.323 156.045 198.11 156.245C197.901 156.445 197.65 156.545 197.356 156.545ZM207.815 160.381L206.46 160.764C206.374 160.538 206.249 160.319 206.082 160.106C205.921 159.888 205.699 159.71 205.418 159.569C205.136 159.428 204.776 159.358 204.337 159.358C203.737 159.358 203.236 159.496 202.835 159.773C202.439 160.046 202.241 160.393 202.241 160.815C202.241 161.19 202.377 161.487 202.65 161.704C202.923 161.921 203.349 162.102 203.928 162.247L205.386 162.605C206.264 162.818 206.918 163.144 207.348 163.583C207.778 164.018 207.994 164.578 207.994 165.264C207.994 165.827 207.832 166.33 207.508 166.773C207.188 167.216 206.741 167.565 206.166 167.821C205.59 168.077 204.921 168.205 204.158 168.205C203.157 168.205 202.328 167.987 201.672 167.553C201.016 167.118 200.6 166.483 200.426 165.648L201.857 165.29C201.994 165.818 202.252 166.214 202.631 166.479C203.014 166.743 203.515 166.875 204.133 166.875C204.836 166.875 205.394 166.726 205.808 166.428C206.225 166.125 206.434 165.763 206.434 165.341C206.434 165 206.315 164.714 206.076 164.484C205.837 164.25 205.471 164.075 204.977 163.96L203.34 163.577C202.441 163.364 201.781 163.033 201.359 162.586C200.941 162.134 200.732 161.57 200.732 160.892C200.732 160.338 200.888 159.848 201.199 159.422C201.514 158.996 201.943 158.661 202.484 158.418C203.029 158.175 203.647 158.054 204.337 158.054C205.309 158.054 206.072 158.267 206.626 158.693C207.184 159.119 207.58 159.682 207.815 160.381ZM222.282 160.381L220.926 160.764C220.841 160.538 220.715 160.319 220.549 160.106C220.387 159.888 220.166 159.71 219.884 159.569C219.603 159.428 219.243 159.358 218.804 159.358C218.203 159.358 217.703 159.496 217.302 159.773C216.906 160.046 216.708 160.393 216.708 160.815C216.708 161.19 216.844 161.487 217.117 161.704C217.389 161.921 217.816 162.102 218.395 162.247L219.853 162.605C220.73 162.818 221.384 163.144 221.815 163.583C222.245 164.018 222.46 164.578 222.46 165.264C222.46 165.827 222.299 166.33 221.975 166.773C221.655 167.216 221.208 167.565 220.632 167.821C220.057 168.077 219.388 168.205 218.625 168.205C217.624 168.205 216.795 167.987 216.139 167.553C215.483 167.118 215.067 166.483 214.892 165.648L216.324 165.29C216.46 165.818 216.718 166.214 217.098 166.479C217.481 166.743 217.982 166.875 218.6 166.875C219.303 166.875 219.861 166.726 220.274 166.428C220.692 166.125 220.901 165.763 220.901 165.341C220.901 165 220.782 164.714 220.543 164.484C220.304 164.25 219.938 164.075 219.443 163.96L217.807 163.577C216.908 163.364 216.247 163.033 215.826 162.586C215.408 162.134 215.199 161.57 215.199 160.892C215.199 160.338 215.355 159.848 215.666 159.422C215.981 158.996 216.409 158.661 216.951 158.418C217.496 158.175 218.114 158.054 218.804 158.054C219.776 158.054 220.539 158.267 221.093 158.693C221.651 159.119 222.047 159.682 222.282 160.381ZM225.703 171.682C225.447 171.682 225.219 171.661 225.019 171.618C224.819 171.58 224.68 171.541 224.603 171.503L224.987 170.173C225.353 170.267 225.677 170.301 225.959 170.276C226.24 170.25 226.489 170.124 226.706 169.898C226.928 169.677 227.13 169.317 227.314 168.818L227.595 168.051L223.964 158.182H225.601L228.311 166.006H228.413L231.123 158.182H232.76L228.592 169.432C228.405 169.939 228.172 170.359 227.895 170.691C227.618 171.028 227.297 171.277 226.93 171.439C226.568 171.601 226.159 171.682 225.703 171.682ZM234.751 168V158.182H236.208V159.716H236.336C236.541 159.192 236.871 158.785 237.327 158.495C237.783 158.201 238.33 158.054 238.97 158.054C239.617 158.054 240.156 158.201 240.587 158.495C241.021 158.785 241.36 159.192 241.603 159.716H241.705C241.957 159.209 242.334 158.806 242.837 158.508C243.34 158.205 243.943 158.054 244.646 158.054C245.524 158.054 246.242 158.329 246.8 158.879C247.358 159.424 247.637 160.274 247.637 161.429V168H246.129V161.429C246.129 160.705 245.93 160.187 245.534 159.876C245.138 159.565 244.671 159.409 244.134 159.409C243.444 159.409 242.909 159.618 242.53 160.036C242.151 160.449 241.961 160.973 241.961 161.608V168H240.427V161.276C240.427 160.717 240.246 160.268 239.884 159.927C239.521 159.582 239.055 159.409 238.484 159.409C238.092 159.409 237.725 159.513 237.384 159.722C237.048 159.931 236.775 160.221 236.566 160.592C236.362 160.958 236.259 161.382 236.259 161.864V168H234.751ZM250.395 171.682V158.182H251.853V159.741H252.032C252.142 159.571 252.296 159.354 252.492 159.089C252.692 158.821 252.978 158.582 253.348 158.374C253.723 158.161 254.231 158.054 254.87 158.054C255.696 158.054 256.425 158.261 257.056 158.674C257.687 159.087 258.179 159.673 258.532 160.432C258.886 161.19 259.063 162.085 259.063 163.116C259.063 164.156 258.886 165.058 258.532 165.82C258.179 166.579 257.689 167.167 257.062 167.585C256.436 167.998 255.714 168.205 254.895 168.205C254.265 168.205 253.76 168.1 253.38 167.891C253.001 167.678 252.709 167.437 252.505 167.169C252.3 166.896 252.142 166.67 252.032 166.491H251.904V171.682H250.395ZM251.878 163.091C251.878 163.832 251.987 164.487 252.204 165.053C252.422 165.616 252.739 166.057 253.157 166.376C253.574 166.692 254.086 166.849 254.691 166.849C255.321 166.849 255.848 166.683 256.27 166.351C256.696 166.014 257.015 165.562 257.228 164.996C257.446 164.425 257.554 163.79 257.554 163.091C257.554 162.401 257.448 161.778 257.235 161.224C257.026 160.666 256.709 160.225 256.282 159.901C255.861 159.573 255.33 159.409 254.691 159.409C254.077 159.409 253.562 159.565 253.144 159.876C252.726 160.183 252.411 160.613 252.198 161.167C251.985 161.717 251.878 162.358 251.878 163.091ZM262.873 154.909V168H261.364V154.909H262.873ZM269.752 168.205C268.806 168.205 267.99 167.996 267.304 167.578C266.622 167.156 266.096 166.568 265.725 165.814C265.359 165.055 265.175 164.173 265.175 163.168C265.175 162.162 265.359 161.276 265.725 160.509C266.096 159.737 266.611 159.136 267.272 158.706C267.937 158.271 268.712 158.054 269.599 158.054C270.11 158.054 270.615 158.139 271.114 158.31C271.612 158.48 272.066 158.757 272.475 159.141C272.884 159.52 273.21 160.023 273.453 160.649C273.696 161.276 273.817 162.047 273.817 162.963V163.602H266.249V162.298H272.283C272.283 161.744 272.172 161.25 271.951 160.815C271.734 160.381 271.422 160.038 271.018 159.786C270.617 159.535 270.144 159.409 269.599 159.409C268.998 159.409 268.478 159.558 268.039 159.857C267.604 160.151 267.27 160.534 267.035 161.007C266.801 161.48 266.684 161.987 266.684 162.528V163.398C266.684 164.139 266.812 164.768 267.067 165.283C267.327 165.795 267.687 166.185 268.148 166.453C268.608 166.717 269.143 166.849 269.752 166.849C270.148 166.849 270.506 166.794 270.826 166.683C271.15 166.568 271.429 166.398 271.663 166.172C271.898 165.942 272.079 165.656 272.207 165.315L273.664 165.724C273.511 166.219 273.253 166.653 272.891 167.028C272.528 167.399 272.081 167.689 271.548 167.898C271.016 168.102 270.417 168.205 269.752 168.205ZM281.175 168V158.182H282.683V168H281.175ZM281.942 156.545C281.648 156.545 281.394 156.445 281.181 156.245C280.972 156.045 280.868 155.804 280.868 155.523C280.868 155.241 280.972 155.001 281.181 154.8C281.394 154.6 281.648 154.5 281.942 154.5C282.236 154.5 282.487 154.6 282.696 154.8C282.909 155.001 283.016 155.241 283.016 155.523C283.016 155.804 282.909 156.045 282.696 156.245C282.487 156.445 282.236 156.545 281.942 156.545ZM285.446 171.682V158.182H286.903V159.741H287.082C287.193 159.571 287.347 159.354 287.543 159.089C287.743 158.821 288.028 158.582 288.399 158.374C288.774 158.161 289.281 158.054 289.921 158.054C290.747 158.054 291.476 158.261 292.107 158.674C292.737 159.087 293.229 159.673 293.583 160.432C293.937 161.19 294.114 162.085 294.114 163.116C294.114 164.156 293.937 165.058 293.583 165.82C293.229 166.579 292.739 167.167 292.113 167.585C291.487 167.998 290.764 168.205 289.946 168.205C289.315 168.205 288.81 168.1 288.431 167.891C288.052 167.678 287.76 167.437 287.555 167.169C287.351 166.896 287.193 166.67 287.082 166.491H286.955V171.682H285.446ZM286.929 163.091C286.929 163.832 287.038 164.487 287.255 165.053C287.472 165.616 287.79 166.057 288.207 166.376C288.625 166.692 289.136 166.849 289.742 166.849C290.372 166.849 290.899 166.683 291.32 166.351C291.747 166.014 292.066 165.562 292.279 164.996C292.497 164.425 292.605 163.79 292.605 163.091C292.605 162.401 292.499 161.778 292.286 161.224C292.077 160.666 291.759 160.225 291.333 159.901C290.911 159.573 290.381 159.409 289.742 159.409C289.128 159.409 288.612 159.565 288.195 159.876C287.777 160.183 287.462 160.613 287.249 161.167C287.036 161.717 286.929 162.358 286.929 163.091ZM303.369 160.381L302.014 160.764C301.929 160.538 301.803 160.319 301.637 160.106C301.475 159.888 301.254 159.71 300.972 159.569C300.691 159.428 300.331 159.358 299.892 159.358C299.291 159.358 298.791 159.496 298.39 159.773C297.994 160.046 297.796 160.393 297.796 160.815C297.796 161.19 297.932 161.487 298.205 161.704C298.477 161.921 298.903 162.102 299.483 162.247L300.94 162.605C301.818 162.818 302.472 163.144 302.903 163.583C303.333 164.018 303.548 164.578 303.548 165.264C303.548 165.827 303.386 166.33 303.063 166.773C302.743 167.216 302.296 167.565 301.72 167.821C301.145 168.077 300.476 168.205 299.713 168.205C298.712 168.205 297.883 167.987 297.227 167.553C296.57 167.118 296.155 166.483 295.98 165.648L297.412 165.29C297.548 165.818 297.806 166.214 298.185 166.479C298.569 166.743 299.07 166.875 299.688 166.875C300.391 166.875 300.949 166.726 301.362 166.428C301.78 166.125 301.989 165.763 301.989 165.341C301.989 165 301.869 164.714 301.631 164.484C301.392 164.25 301.026 164.075 300.531 163.96L298.895 163.577C297.996 163.364 297.335 163.033 296.913 162.586C296.496 162.134 296.287 161.57 296.287 160.892C296.287 160.338 296.443 159.848 296.754 159.422C297.069 158.996 297.497 158.661 298.038 158.418C298.584 158.175 299.202 158.054 299.892 158.054C300.864 158.054 301.627 158.267 302.18 158.693C302.739 159.119 303.135 159.682 303.369 160.381ZM312.007 163.986V158.182H313.515V168H312.007V166.338H311.904C311.674 166.837 311.316 167.261 310.831 167.61C310.345 167.955 309.731 168.128 308.99 168.128C308.376 168.128 307.831 167.994 307.353 167.725C306.876 167.452 306.501 167.043 306.228 166.498C305.956 165.948 305.819 165.256 305.819 164.42V158.182H307.328V164.318C307.328 165.034 307.528 165.605 307.929 166.031C308.333 166.457 308.849 166.67 309.475 166.67C309.85 166.67 310.232 166.575 310.62 166.383C311.012 166.191 311.34 165.897 311.604 165.501C311.872 165.104 312.007 164.599 312.007 163.986ZM316.278 168V158.182H317.736V159.716H317.863C318.068 159.192 318.398 158.785 318.854 158.495C319.31 158.201 319.858 158.054 320.497 158.054C321.145 158.054 321.684 158.201 322.114 158.495C322.549 158.785 322.888 159.192 323.13 159.716H323.233C323.484 159.209 323.861 158.806 324.364 158.508C324.867 158.205 325.47 158.054 326.173 158.054C327.051 158.054 327.769 158.329 328.327 158.879C328.885 159.424 329.165 160.274 329.165 161.429V168H327.656V161.429C327.656 160.705 327.458 160.187 327.062 159.876C326.665 159.565 326.199 159.409 325.662 159.409C324.971 159.409 324.437 159.618 324.057 160.036C323.678 160.449 323.488 160.973 323.488 161.608V168H321.954V161.276C321.954 160.717 321.773 160.268 321.411 159.927C321.049 159.582 320.582 159.409 320.011 159.409C319.619 159.409 319.253 159.513 318.912 159.722C318.575 159.931 318.302 160.221 318.093 160.592C317.889 160.958 317.787 161.382 317.787 161.864V168H316.278Z" fill="#EBEBEB"/>
</svg>
