<svg width="32" height="32" viewBox="0 0 32 32" fill="none" xmlns="http://www.w3.org/2000/svg">
<rect x="0.372093" y="0.372093" width="31.2558" height="31.2558" rx="15.6279" fill="#FBFBFB"/>
<rect x="0.372093" y="0.372093" width="31.2558" height="31.2558" rx="15.6279" stroke="#D7D7D7" stroke-width="0.744186"/>
<path fill-rule="evenodd" clip-rule="evenodd" d="M15.958 9.48837C17.3256 9.48836 18.4929 9.48835 19.3407 9.60234C20.2131 9.71964 20.9194 9.96679 21.4763 10.5237C22.0332 11.0806 22.2803 11.7868 22.3977 12.6593C22.5116 13.5071 22.5116 14.5904 22.5116 15.958C22.5116 17.3256 22.5116 18.4929 22.3977 19.3407C22.2803 20.2131 22.0332 20.9194 21.4763 21.4763C20.9194 22.0332 20.2131 22.2803 19.3407 22.3977C18.4929 22.5116 17.3257 22.5116 15.958 22.5116C14.5904 22.5116 13.5071 22.5116 12.6593 22.3977C11.7868 22.2803 11.0806 22.0332 10.5237 21.4763C9.96679 20.9194 9.71964 20.2131 9.60234 19.3407C9.48835 18.4929 9.48836 17.3256 9.48837 15.958C9.48836 14.5904 9.48835 13.5071 9.60234 12.6593C9.71964 11.7868 9.96679 11.0806 10.5237 10.5237C11.0806 9.96679 11.7868 9.71964 12.6593 9.60234C13.5071 9.48835 14.5904 9.48836 15.958 9.48837ZM14.5118 14.4162L13.9218 16.186H15.1018L14.5118 14.4162ZM15.4739 17.3023L15.8428 18.4091C15.9402 18.7015 16.2563 18.8595 16.5488 18.762C16.8412 18.6646 16.9992 18.3485 16.9017 18.056L15.531 13.9439C15.3848 13.5052 14.9742 13.2093 14.5118 13.2093C14.0493 13.2093 13.6388 13.5052 13.4925 13.9439L12.1218 18.056C12.0243 18.3485 12.1824 18.6646 12.4748 18.762C12.7672 18.8595 13.0833 18.7015 13.1808 18.4091L13.5497 17.3023H15.4739ZM19.1628 13.7674C19.1628 13.4592 18.9129 13.2093 18.6047 13.2093C18.2964 13.2093 18.0465 13.4592 18.0465 13.7674V18.2326C18.0465 18.5408 18.2964 18.7907 18.6047 18.7907C18.9129 18.7907 19.1628 18.5408 19.1628 18.2326V13.7674Z" fill="#0074D9"/>
<path fill-rule="evenodd" clip-rule="evenodd" d="M8 13.0233C8 12.715 8.24989 12.4651 8.55814 12.4651H10.0465C10.3548 12.4651 10.6047 12.715 10.6047 13.0233C10.6047 13.3315 10.3548 13.5814 10.0465 13.5814H8.55814C8.24989 13.5814 8 13.3315 8 13.0233ZM21.3953 13.0233C21.3953 12.715 21.6452 12.4651 21.9535 12.4651H23.4419C23.7501 12.4651 24 12.715 24 13.0233C24 13.3315 23.7501 13.5814 23.4419 13.5814H21.9535C21.6452 13.5814 21.3953 13.3315 21.3953 13.0233ZM8 16C8 15.6918 8.24989 15.4419 8.55814 15.4419H10.0465C10.3548 15.4419 10.6047 15.6918 10.6047 16C10.6047 16.3082 10.3548 16.5581 10.0465 16.5581H8.55814C8.24989 16.5581 8 16.3082 8 16ZM21.3953 16C21.3953 15.6918 21.6452 15.4419 21.9535 15.4419H23.4419C23.7501 15.4419 24 15.6918 24 16C24 16.3082 23.7501 16.5581 23.4419 16.5581H21.9535C21.6452 16.5581 21.3953 16.3082 21.3953 16ZM8 18.9767C8 18.6685 8.24989 18.4186 8.55814 18.4186H10.0465C10.3548 18.4186 10.6047 18.6685 10.6047 18.9767C10.6047 19.285 10.3548 19.5349 10.0465 19.5349H8.55814C8.24989 19.5349 8 19.285 8 18.9767ZM21.3953 18.9767C21.3953 18.6685 21.6452 18.4186 21.9535 18.4186H23.4419C23.7501 18.4186 24 18.6685 24 18.9767C24 19.285 23.7501 19.5349 23.4419 19.5349H21.9535C21.6452 19.5349 21.3953 19.285 21.3953 18.9767Z" fill="#0074D9"/>
<path fill-rule="evenodd" clip-rule="evenodd" d="M13.0233 8C13.3315 8 13.5814 8.24989 13.5814 8.55814V10.0465C13.5814 10.3548 13.3315 10.6047 13.0233 10.6047C12.715 10.6047 12.4651 10.3548 12.4651 10.0465V8.55814C12.4651 8.24989 12.715 8 13.0233 8ZM16 8C16.3082 8 16.5581 8.24989 16.5581 8.55814V10.0465C16.5581 10.3548 16.3082 10.6047 16 10.6047C15.6918 10.6047 15.4419 10.3548 15.4419 10.0465V8.55814C15.4419 8.24989 15.6918 8 16 8ZM18.9767 8C19.285 8 19.5349 8.24989 19.5349 8.55814V10.0465C19.5349 10.3548 19.285 10.6047 18.9767 10.6047C18.6685 10.6047 18.4186 10.3548 18.4186 10.0465V8.55814C18.4186 8.24989 18.6685 8 18.9767 8ZM13.0233 21.3953C13.3315 21.3953 13.5814 21.6452 13.5814 21.9535V23.4419C13.5814 23.7501 13.3315 24 13.0233 24C12.715 24 12.4651 23.7501 12.4651 23.4419V21.9535C12.4651 21.6452 12.715 21.3953 13.0233 21.3953ZM16 21.3953C16.3082 21.3953 16.5581 21.6452 16.5581 21.9535V23.4419C16.5581 23.7501 16.3082 24 16 24C15.6918 24 15.4419 23.7501 15.4419 23.4419V21.9535C15.4419 21.6452 15.6918 21.3953 16 21.3953ZM18.9767 21.3953C19.285 21.3953 19.5349 21.6452 19.5349 21.9535V23.4419C19.5349 23.7501 19.285 24 18.9767 24C18.6685 24 18.4186 23.7501 18.4186 23.4419V21.9535C18.4186 21.6452 18.6685 21.3953 18.9767 21.3953Z" fill="#0074D9"/>
</svg>
