<svg width="32" height="32" viewBox="0 0 32 32" fill="none" xmlns="http://www.w3.org/2000/svg">
<rect x="0.372093" y="0.372093" width="31.2558" height="31.2558" rx="15.6279" fill="#FBFBFB"/>
<rect x="0.372093" y="0.372093" width="31.2558" height="31.2558" rx="15.6279" stroke="#0072D4" stroke-width="0.744186"/>
<path d="M20.1684 18.1114C20.2519 18.1629 20.3551 18.2233 20.4719 18.2916C20.9837 18.5908 21.7572 19.0432 22.2872 19.5809C22.6186 19.9172 22.9336 20.3603 22.9908 20.9033C23.0517 21.4806 22.8087 22.0225 22.3212 22.5039C21.4802 23.3344 20.4709 24 19.1655 24H12.8345C11.5291 24 10.5198 23.3344 9.67881 22.5039C9.19132 22.0225 8.94832 21.4806 9.00921 20.9033C9.06646 20.3603 9.38139 19.9172 9.71284 19.5809C10.2428 19.0432 11.0164 18.5908 11.5281 18.2916C11.6449 18.2233 11.7481 18.1629 11.8316 18.1114C14.3832 16.5365 17.6169 16.5365 20.1684 18.1114Z" fill="#42A7FF"/>
<path d="M12.2308 11.907C12.2308 9.74921 13.9184 8 16 8C18.0817 8 19.7692 9.74921 19.7692 11.907C19.7692 14.0647 18.0817 15.814 16 15.814C13.9184 15.814 12.2308 14.0647 12.2308 11.907Z" fill="#42A7FF"/>
</svg>
