<svg width="85" height="16" viewBox="0 0 85 16" fill="none" xmlns="http://www.w3.org/2000/svg">
<path fill-rule="evenodd" clip-rule="evenodd" d="M7.95803 1.48837C9.32562 1.48836 10.4929 1.48835 11.3407 1.60234C12.2131 1.71964 12.9194 1.96679 13.4763 2.52371C14.0332 3.08064 14.2803 3.78684 14.3977 4.65933C14.5116 5.50711 14.5116 6.59036 14.5116 7.95795C14.5116 9.32562 14.5116 10.4929 14.3977 11.3407C14.2803 12.2131 14.0332 12.9194 13.4763 13.4763C12.9194 14.0332 12.2131 14.2803 11.3407 14.3977C10.4929 14.5116 9.32569 14.5116 7.95803 14.5116C6.59044 14.5116 5.50711 14.5116 4.65933 14.3977C3.78684 14.2803 3.08064 14.0332 2.52371 13.4763C1.96679 12.9194 1.71964 12.2131 1.60234 11.3407C1.48835 10.4929 1.48836 9.32562 1.48837 7.95803C1.48836 6.59036 1.48835 5.50712 1.60234 4.65933C1.71964 3.78684 1.96679 3.08064 2.52371 2.52371C3.08064 1.96679 3.78684 1.71964 4.65933 1.60234C5.50712 1.48835 6.59036 1.48836 7.95803 1.48837ZM6.51178 6.41616L5.92182 8.18605H7.10177L6.51178 6.41616ZM7.47386 9.30233L7.84275 10.4091C7.94024 10.7015 8.2563 10.8595 8.54876 10.762C8.84115 10.6646 8.99922 10.3485 8.90173 10.056L7.53101 5.94394C7.38478 5.50522 6.97421 5.2093 6.51178 5.2093C6.04933 5.2093 5.63876 5.50522 5.49252 5.94394L4.12182 10.056C4.02434 10.3485 4.18238 10.6646 4.47481 10.762C4.76725 10.8595 5.08333 10.7015 5.18082 10.4091L5.54972 9.30233H7.47386ZM11.1628 5.76744C11.1628 5.45919 10.9129 5.2093 10.6047 5.2093C10.2964 5.2093 10.0465 5.45919 10.0465 5.76744V10.2326C10.0465 10.5408 10.2964 10.7907 10.6047 10.7907C10.9129 10.7907 11.1628 10.5408 11.1628 10.2326V5.76744Z" fill="#0074D9"/>
<path fill-rule="evenodd" clip-rule="evenodd" d="M0 5.02326C0 4.71501 0.24989 4.46512 0.55814 4.46512H2.04651C2.35476 4.46512 2.60465 4.71501 2.60465 5.02326C2.60465 5.33151 2.35476 5.5814 2.04651 5.5814H0.55814C0.24989 5.5814 0 5.33151 0 5.02326ZM13.3953 5.02326C13.3953 4.71501 13.6452 4.46512 13.9535 4.46512H15.4419C15.7501 4.46512 16 4.71501 16 5.02326C16 5.33151 15.7501 5.5814 15.4419 5.5814H13.9535C13.6452 5.5814 13.3953 5.33151 13.3953 5.02326ZM0 8C0 7.69176 0.24989 7.44186 0.55814 7.44186H2.04651C2.35476 7.44186 2.60465 7.69176 2.60465 8C2.60465 8.30824 2.35476 8.55814 2.04651 8.55814H0.55814C0.24989 8.55814 0 8.30824 0 8ZM13.3953 8C13.3953 7.69176 13.6452 7.44186 13.9535 7.44186H15.4419C15.7501 7.44186 16 7.69176 16 8C16 8.30824 15.7501 8.55814 15.4419 8.55814H13.9535C13.6452 8.55814 13.3953 8.30824 13.3953 8ZM0 10.9767C0 10.6685 0.24989 10.4186 0.55814 10.4186H2.04651C2.35476 10.4186 2.60465 10.6685 2.60465 10.9767C2.60465 11.285 2.35476 11.5349 2.04651 11.5349H0.55814C0.24989 11.5349 0 11.285 0 10.9767ZM13.3953 10.9767C13.3953 10.6685 13.6452 10.4186 13.9535 10.4186H15.4419C15.7501 10.4186 16 10.6685 16 10.9767C16 11.285 15.7501 11.5349 15.4419 11.5349H13.9535C13.6452 11.5349 13.3953 11.285 13.3953 10.9767Z" fill="#0074D9"/>
<path fill-rule="evenodd" clip-rule="evenodd" d="M5.02326 0C5.33151 0 5.5814 0.24989 5.5814 0.55814V2.04651C5.5814 2.35476 5.33151 2.60465 5.02326 2.60465C4.71501 2.60465 4.46512 2.35476 4.46512 2.04651V0.55814C4.46512 0.24989 4.71501 0 5.02326 0ZM8 0C8.30824 0 8.55814 0.24989 8.55814 0.55814V2.04651C8.55814 2.35476 8.30824 2.60465 8 2.60465C7.69176 2.60465 7.44186 2.35476 7.44186 2.04651V0.55814C7.44186 0.24989 7.69176 0 8 0ZM10.9767 0C11.285 0 11.5349 0.24989 11.5349 0.55814V2.04651C11.5349 2.35476 11.285 2.60465 10.9767 2.60465C10.6685 2.60465 10.4186 2.35476 10.4186 2.04651V0.55814C10.4186 0.24989 10.6685 0 10.9767 0ZM5.02326 13.3953C5.33151 13.3953 5.5814 13.6452 5.5814 13.9535V15.4419C5.5814 15.7501 5.33151 16 5.02326 16C4.71501 16 4.46512 15.7501 4.46512 15.4419V13.9535C4.46512 13.6452 4.71501 13.3953 5.02326 13.3953ZM8 13.3953C8.30824 13.3953 8.55814 13.6452 8.55814 13.9535V15.4419C8.55814 15.7501 8.30824 16 8 16C7.69176 16 7.44186 15.7501 7.44186 15.4419V13.9535C7.44186 13.6452 7.69176 13.3953 8 13.3953ZM10.9767 13.3953C11.285 13.3953 11.5349 13.6452 11.5349 13.9535V15.4419C11.5349 15.7501 11.285 16 10.9767 16C10.6685 16 10.4186 15.7501 10.4186 15.4419V13.9535C10.4186 13.6452 10.6685 13.3953 10.9767 13.3953Z" fill="#0074D9"/>
<path d="M23.4906 13H21.8505V2.82508H23.4906V13ZM28.8362 8.91484H22.3516V7.44176H28.8362V8.91484ZM29.064 4.29817H22.3516V2.82508H29.064V4.29817Z" fill="#0074D9"/>
<path d="M31.8836 13H30.2435V5.40678H31.7469V7.51769L31.8836 7.59362V13ZM31.8836 8.07959H31.5039V6.6065H31.8229C31.9747 6.25215 32.2228 5.94843 32.567 5.69532C32.9213 5.43209 33.3769 5.30047 33.9338 5.30047C34.4704 5.30047 34.8956 5.4169 35.2094 5.64976C35.5334 5.88262 35.7663 6.19141 35.908 6.57613C36.0497 6.96086 36.1206 7.39114 36.1206 7.86698V8.36813H34.4805V8.0644C34.4805 7.55819 34.3944 7.20384 34.2223 7.00135C34.0502 6.79887 33.7262 6.69762 33.2504 6.69762C32.7543 6.69762 32.3999 6.80393 32.1873 7.01654C31.9848 7.21902 31.8836 7.57337 31.8836 8.07959Z" fill="#0074D9"/>
<path d="M40.6318 13.1519C39.8624 13.1519 39.1942 12.9899 38.6272 12.6659C38.0603 12.3318 37.6249 11.8711 37.3212 11.2839C37.0174 10.6866 36.8656 9.99814 36.8656 9.21857C36.8656 8.439 37.0174 7.75561 37.3212 7.1684C37.6249 6.58119 38.0603 6.1256 38.6272 5.80162C39.1942 5.46752 39.8624 5.30047 40.6318 5.30047C41.4013 5.30047 42.0593 5.46752 42.6061 5.80162C43.1629 6.1256 43.5881 6.58119 43.8817 7.1684C44.1855 7.75561 44.3373 8.439 44.3373 9.21857C44.3373 9.99814 44.1855 10.6866 43.8817 11.2839C43.5881 11.8711 43.1629 12.3318 42.6061 12.6659C42.0593 12.9899 41.4013 13.1519 40.6318 13.1519ZM40.6318 11.694C41.4215 11.694 41.9733 11.4965 42.2871 11.1017C42.601 10.6967 42.7579 10.069 42.7579 9.21857C42.7579 8.36813 42.601 7.74549 42.2871 7.35064C41.9733 6.95579 41.4215 6.75837 40.6318 6.75837C39.832 6.75837 39.2752 6.95579 38.9613 7.35064C38.6475 7.74549 38.4905 8.36813 38.4905 9.21857C38.4905 10.069 38.6475 10.6967 38.9613 11.1017C39.2752 11.4965 39.832 11.694 40.6318 11.694Z" fill="#0074D9"/>
<path d="M52.5947 13H50.9546V8.61112C50.9546 7.94291 50.828 7.46201 50.5749 7.1684C50.3218 6.86467 49.846 6.71281 49.1474 6.71281C48.7019 6.71281 48.3374 6.77862 48.054 6.91023C47.7705 7.03172 47.5579 7.23421 47.4161 7.51769C47.2744 7.79105 47.2035 8.16565 47.2035 8.64149H46.915L46.7783 6.86467H47.1428C47.2541 6.59132 47.4212 6.33821 47.6439 6.10535C47.8667 5.87249 48.1501 5.68013 48.4944 5.52827C48.8487 5.3764 49.2689 5.30047 49.7548 5.30047C50.4129 5.30047 50.9495 5.42702 51.3646 5.68013C51.7797 5.93324 52.0885 6.28253 52.291 6.728C52.4935 7.17347 52.5947 7.68474 52.5947 8.26183V13ZM47.2035 13H45.5634V5.45234H47.0668V7.71512L47.2035 7.79105V13Z" fill="#0074D9"/>
<path d="M57.2349 13C56.4047 13 55.7668 12.8228 55.3214 12.4685C54.886 12.1141 54.6684 11.5168 54.6684 10.6765V5.61939L55.048 3.5844H56.3085V10.6005C56.3085 10.9954 56.4047 11.2485 56.597 11.3599C56.7995 11.4611 57.1589 11.5117 57.6753 11.5117H58.5865V12.8633C58.4346 12.9038 58.2372 12.9393 57.9942 12.9696C57.7512 12.9899 57.4981 13 57.2349 13ZM58.5865 6.81912H53.4079V5.45234H58.5865V6.81912Z" fill="#0074D9"/>
<path d="M61.3974 13H59.7572V2.82508H61.3974V13ZM67.0316 13H60.2584V11.5117H67.0316V13ZM66.8038 8.6263H60.2584V7.13803H66.8038V8.6263ZM67.0316 4.29817H60.2584V2.82508H67.0316V4.29817Z" fill="#0074D9"/>
<path d="M75.4782 13H73.838V8.61112C73.838 7.94291 73.7115 7.46201 73.4584 7.1684C73.2053 6.86467 72.7294 6.71281 72.0309 6.71281C71.5854 6.71281 71.2209 6.77862 70.9374 6.91023C70.654 7.03172 70.4413 7.23421 70.2996 7.51769C70.1579 7.79105 70.087 8.16565 70.087 8.64149H69.7984L69.6618 6.86467H70.0262C70.1376 6.59132 70.3047 6.33821 70.5274 6.10535C70.7501 5.87249 71.0336 5.68013 71.3778 5.52827C71.7322 5.3764 72.1524 5.30047 72.6383 5.30047C73.2964 5.30047 73.833 5.42702 74.2481 5.68013C74.6632 5.93324 74.972 6.28253 75.1745 6.728C75.3769 7.17347 75.4782 7.68474 75.4782 8.26183V13ZM70.087 13H68.4469V5.45234H69.9503V7.71512L70.087 7.79105V13Z" fill="#0074D9"/>
<path d="M80.041 13.1519C78.9678 13.1519 78.1427 12.7975 77.5656 12.0888C76.9986 11.37 76.7152 10.4132 76.7152 9.21857C76.7152 8.02391 76.9936 7.07222 77.5504 6.36352C78.1174 5.65482 78.9172 5.30047 79.9499 5.30047C80.6181 5.30047 81.1547 5.43715 81.5596 5.7105C81.9747 5.97374 82.2633 6.27747 82.4253 6.62169H82.8353L82.7594 8.55037H82.4708C82.4708 8.12515 82.3898 7.77586 82.2278 7.5025C82.0659 7.22915 81.833 7.02666 81.5293 6.89505C81.2255 6.76343 80.8509 6.69762 80.4055 6.69762C80.041 6.69762 79.7271 6.74318 79.4639 6.8343C79.2108 6.92542 78.9982 7.06716 78.8261 7.25952C78.6641 7.45188 78.5426 7.71005 78.4616 8.03403C78.3907 8.35801 78.3553 8.75286 78.3553 9.21857C78.3553 9.67417 78.3907 10.069 78.4616 10.4031C78.5426 10.7271 78.6641 10.9903 78.8261 11.1928C78.9982 11.3852 79.2159 11.5269 79.4791 11.618C79.7423 11.7091 80.0511 11.7547 80.4055 11.7547C80.8509 11.7547 81.2255 11.6889 81.5293 11.5573C81.833 11.4155 82.0659 11.208 82.2278 10.9346C82.3898 10.6613 82.4708 10.3171 82.4708 9.90196H82.7594L82.8353 11.7547H82.5316C82.3595 12.1901 82.0608 12.5343 81.6356 12.7874C81.2205 13.0304 80.6889 13.1519 80.041 13.1519ZM84.111 13H82.5923V11.208L82.4708 11.0106V2.82508H84.111V13Z" fill="#0074D9"/>
</svg>
