<svg width="32" height="32" viewBox="0 0 32 32" fill="none" xmlns="http://www.w3.org/2000/svg">
<rect width="32" height="32" rx="8" fill="#0074D9"/>
<path d="M8.88928 15.9998C8.88928 12.6475 8.88928 10.9714 9.93068 9.93004C10.9721 8.88864 12.6482 8.88864 16.0004 8.88864C19.3526 8.88864 21.0287 8.88864 22.0701 9.93004C23.1115 10.9714 23.1115 12.6475 23.1115 15.9998C23.1115 19.3519 23.1115 21.0281 22.0701 22.0694C21.0287 23.1109 19.3526 23.1109 16.0004 23.1109C12.6482 23.1109 10.9721 23.1109 9.93068 22.0694C8.88928 21.0281 8.88928 19.3519 8.88928 15.9998Z" stroke="white" stroke-width="1.16667" stroke-linejoin="round"/>
<path d="M12 18.6666L13.6372 13.7549C13.7211 13.5032 13.9568 13.3333 14.2222 13.3333C14.4876 13.3333 14.7233 13.5032 14.8072 13.7549L16.4444 18.6666M12.8889 16.8889H15.5555" stroke="white" stroke-width="1.16667" stroke-linecap="round" stroke-linejoin="round"/>
<path d="M19.1107 13.3333V18.6666" stroke="white" stroke-width="1.16667" stroke-linecap="round" stroke-linejoin="round"/>
<path d="M12.444 7.1113V8.88908M19.5551 7.1113V8.88908M15.9995 7.1113V8.88908M12.444 23.1113V24.8891M15.9995 23.1113V24.8891M19.5551 23.1113V24.8891M24.8884 19.5557H23.1107M8.88843 12.4446H7.11066M8.88843 19.5557H7.11066M8.88843 16.0002H7.11066M24.8884 12.4446H23.1107M24.8884 16.0002H23.1107" stroke="white" stroke-width="1.16667" stroke-linecap="round" stroke-linejoin="round"/>
</svg>
