<svg width="33" height="32" viewBox="0 0 33 32" fill="none" xmlns="http://www.w3.org/2000/svg">
<rect x="0.666626" width="32" height="32" rx="8" fill="#0074D9"/>
<path d="M21.5181 13.4046L21.2594 12.9477C21.0637 12.6022 20.9659 12.4295 20.7994 12.3606C20.633 12.2917 20.4446 12.3461 20.0681 12.4548L19.4285 12.6381C19.188 12.6945 18.9358 12.6625 18.7163 12.5477L18.5397 12.4441C18.3515 12.3214 18.2067 12.1406 18.1265 11.928L17.9515 11.396C17.8364 11.044 17.7788 10.868 17.6418 10.7674C17.5048 10.6667 17.3228 10.6667 16.9588 10.6667H16.3744C16.0104 10.6667 15.8284 10.6667 15.6914 10.7674C15.5544 10.868 15.4968 11.044 15.3817 11.396L15.2067 11.928C15.1265 12.1406 14.9817 12.3214 14.7935 12.4441L14.6169 12.5477C14.3974 12.6625 14.1452 12.6945 13.9047 12.6381L13.2651 12.4548C12.8885 12.3461 12.7002 12.2917 12.5338 12.3606C12.3673 12.4295 12.2694 12.6022 12.0737 12.9477L11.815 13.4046C11.6316 13.7285 11.5399 13.8904 11.5577 14.0628C11.5755 14.2351 11.6982 14.3741 11.9438 14.6519L12.4843 15.2667C12.6164 15.4368 12.7102 15.7334 12.7102 15.9999C12.7102 16.2667 12.6164 16.5631 12.4843 16.7333L11.9438 17.3481C11.6982 17.6259 11.5755 17.7648 11.5577 17.9372C11.5399 18.1096 11.6316 18.2716 11.815 18.5954L12.0737 19.0522C12.2694 19.3977 12.3673 19.5705 12.5338 19.6394C12.7002 19.7083 12.8885 19.6539 13.2651 19.5452L13.9047 19.3619C14.1452 19.3054 14.3974 19.3375 14.617 19.4523L14.7936 19.5559C14.9818 19.6786 15.1265 19.8595 15.2067 20.072L15.3817 20.604C15.4968 20.956 15.5544 21.132 15.6914 21.2326C15.8284 21.3334 16.0104 21.3334 16.3744 21.3334H16.9588C17.3228 21.3334 17.5048 21.3334 17.6418 21.2326C17.7788 21.132 17.8364 20.956 17.9515 20.604L18.1265 20.072C18.2067 19.8595 18.3514 19.6786 18.5397 19.5559L18.7162 19.4523C18.9357 19.3375 19.188 19.3054 19.4285 19.3619L20.0681 19.5452C20.4446 19.6539 20.6329 19.7083 20.7994 19.6394C20.9659 19.5705 21.0637 19.3977 21.2595 19.0523L21.5181 18.5954C21.7016 18.2716 21.7933 18.1096 21.7755 17.9372C21.7577 17.7648 21.6349 17.6259 21.3893 17.3481L20.8489 16.7333C20.7167 16.5631 20.623 16.2667 20.623 15.9999C20.623 15.7334 20.7168 15.4368 20.8489 15.2667L21.3893 14.6519C21.6349 14.3741 21.7577 14.2351 21.7755 14.0628C21.7933 13.8904 21.7016 13.7285 21.5181 13.4046Z" stroke="white" stroke-width="1.33333" stroke-linecap="round"/>
<path d="M16.6666 17.5556C17.5257 17.5556 18.2221 16.8591 18.2221 16C18.2221 15.1409 17.5257 14.4445 16.6666 14.4445C15.8075 14.4445 15.111 15.1409 15.111 16C15.111 16.8591 15.8075 17.5556 16.6666 17.5556Z" stroke="white" stroke-width="1.33333"/>
<path d="M22.8888 7.11111V9.65207C21.2854 8.08029 19.0893 7.11111 16.6666 7.11111C11.7574 7.11111 7.77771 11.0908 7.77771 16C7.77771 17.2642 8.04161 18.4668 8.51735 19.5556M10.4444 24.8889V22.3479C12.0477 23.9197 14.244 24.8889 16.6666 24.8889C21.5758 24.8889 25.5555 20.9092 25.5555 16C25.5555 14.7358 25.2916 13.5333 24.8158 12.4444" stroke="white" stroke-width="1.33333" stroke-linecap="round" stroke-linejoin="round"/>
</svg>
