<svg width="33" height="32" viewBox="0 0 33 32" fill="none" xmlns="http://www.w3.org/2000/svg">
<rect x="0.333374" width="32" height="32" rx="8" fill="#0074D9"/>
<path d="M13.2222 19.1111C13.3396 19.5362 13.5763 20 14.1944 20C15.2638 20 15.5312 19.1111 16.3333 16C17.1355 12.8889 17.4029 12 18.4724 12C19.0903 12 19.327 12.4638 19.4445 12.8889M15.0371 14.8889H18.4724" stroke="white" stroke-width="1.33333" stroke-linecap="round" stroke-linejoin="round"/>
<path d="M16.3333 24.8889C21.2425 24.8889 25.2222 20.9092 25.2222 16C25.2222 11.0908 21.2425 7.11111 16.3333 7.11111C11.4241 7.11111 7.44446 11.0908 7.44446 16C7.44446 20.9092 11.4241 24.8889 16.3333 24.8889Z" stroke="white" stroke-width="1.33333"/>
</svg>
