<svg width="13" height="14" viewBox="0 0 13 14" fill="none" xmlns="http://www.w3.org/2000/svg">
  <path d="M10.5625 3.47913L10.2268 8.90939C10.141 10.2968 10.0982 10.9905 9.75043 11.4892C9.57845 11.7358 9.35713 11.9439 9.10038 12.1003C8.58114 12.4166 7.88612 12.4166 6.49605 12.4166C5.10419 12.4166 4.40825 12.4166 3.88865 12.0997C3.63177 11.943 3.41033 11.7346 3.23845 11.4876C2.89081 10.988 2.84887 10.2933 2.765 8.90403L2.4375 3.47913" stroke="#9B9B9B" stroke-linecap="round" stroke-width="2"/>
  <path d="M1.625 3.47921H11.375M8.69684 3.47921L8.3271 2.71639C8.08145 2.20968 7.9586 1.95632 7.74675 1.79831C7.69979 1.76326 7.65001 1.73208 7.59796 1.70509C7.36336 1.58337 7.0818 1.58337 6.51869 1.58337C5.94143 1.58337 5.65283 1.58337 5.41433 1.71019C5.36147 1.7383 5.31103 1.77074 5.26353 1.80717C5.04922 1.97159 4.92951 2.23421 4.69008 2.75947L4.362 3.47921" stroke="#9B9B9B" stroke-linecap="round" stroke-width="2"/>
</svg>
